<svg id="Group_3_Copy" data-name="Group 3 Copy" xmlns="http://www.w3.org/2000/svg" width="55.576" height="55.576" viewBox="0 0 55.576 55.576">
  <defs>
    <style>
      .cls-1 {
        fill: #dff4ff;
      }

      .cls-2 {
        fill: #fffffe;
      }

      .cls-3 {
        fill: #0383c9;
      }

      .cls-4 {
        fill: #7bcdf9;
      }
    </style>
  </defs>
  <path id="Fill_135" data-name="Fill 135" class="cls-1" d="M41.576,54.3H2.545A2.545,2.545,0,0,1,0,51.757V2.545A2.545,2.545,0,0,1,2.545,0h39.03a2.545,2.545,0,0,1,2.545,2.545V51.757A2.545,2.545,0,0,1,41.576,54.3" transform="translate(0.636 0.636)"/>
  <path id="Fill_136" data-name="Fill 136" class="cls-2" d="M38.182,50.06H.848A.849.849,0,0,1,0,49.211V0H35.636a2.545,2.545,0,0,1,2.545,2.545V50.06" transform="translate(6.576 0.636)"/>
  <path id="Fill_137" data-name="Fill 137" class="cls-3" d="M42.212,55.576H3.181A3.186,3.186,0,0,1,0,52.394V3.182A3.185,3.185,0,0,1,3.181,0h39.03a3.186,3.186,0,0,1,3.182,3.181V52.394A3.186,3.186,0,0,1,42.212,55.576ZM3.181,1.273A1.911,1.911,0,0,0,1.273,3.182V52.394A1.912,1.912,0,0,0,3.181,54.3h39.03a1.912,1.912,0,0,0,1.91-1.91V3.182a1.912,1.912,0,0,0-1.91-1.909Z"/>
  <path id="Fill_138" data-name="Fill 138" class="cls-1" d="M21.212,5.939H2.545A2.545,2.545,0,0,1,0,3.394V0H23.758V3.394a2.545,2.545,0,0,1-2.545,2.545" transform="translate(10.818 0.636)"/>
  <path id="Fill_139" data-name="Fill 139" class="cls-2" d="M15.273,5.939H2.545A2.546,2.546,0,0,1,0,3.394V0H17.818V3.394a2.545,2.545,0,0,1-2.545,2.545" transform="translate(16.758 0.636)"/>
  <path id="Fill_140" data-name="Fill 140" class="cls-3" d="M21.848,7.212H3.182A3.185,3.185,0,0,1,0,4.03V.636A.637.637,0,0,1,.636,0H24.394a.637.637,0,0,1,.636.636V4.03A3.185,3.185,0,0,1,21.848,7.212ZM1.273,1.273V4.03A1.911,1.911,0,0,0,3.182,5.939H21.848A1.911,1.911,0,0,0,23.757,4.03V1.273Z" transform="translate(10.182)"/>
  <path id="Fill_141" data-name="Fill 141" class="cls-4" d="M4.03,1.273H.636A.636.636,0,1,1,.636,0H4.03a.636.636,0,0,1,0,1.273" transform="translate(50.909 1.697)"/>
  <path id="Fill_142" data-name="Fill 142" class="cls-4" d="M.636,4.667A.636.636,0,0,1,0,4.03V.636a.636.636,0,1,1,1.273,0V4.03a.637.637,0,0,1-.636.636" transform="translate(52.606)"/>
  <path id="Fill_143" data-name="Fill 143" class="cls-4" d="M4.03,1.273H.636A.636.636,0,1,1,.636,0H4.03a.636.636,0,0,1,0,1.273" transform="translate(47.515 8.485)"/>
  <path id="Fill_144" data-name="Fill 144" class="cls-4" d="M.636,4.667A.636.636,0,0,1,0,4.03V.636a.636.636,0,1,1,1.273,0V4.03a.636.636,0,0,1-.636.636" transform="translate(49.212 6.788)"/>
  <path id="Fill_145" data-name="Fill 145" class="cls-4" d="M4.03,1.273H.636A.636.636,0,1,1,.636,0H4.03a.636.636,0,0,1,0,1.273" transform="translate(49.212 46.671)"/>
  <path id="Fill_146" data-name="Fill 146" class="cls-4" d="M.636,4.667A.636.636,0,0,1,0,4.03V.636a.636.636,0,1,1,1.273,0V4.03a.637.637,0,0,1-.636.636" transform="translate(50.909 44.974)"/>
  <path id="Fill_147" data-name="Fill 147" class="cls-2" d="M4.243,5.092H.848A.849.849,0,0,1,0,4.243V.848A.849.849,0,0,1,.848,0H4.243a.849.849,0,0,1,.848.848V4.243a.848.848,0,0,1-.848.848" transform="translate(4.879 11.667)"/>
  <path id="Fill_148" data-name="Fill 148" class="cls-3" d="M4.88,6.365H1.485A1.487,1.487,0,0,1,0,4.88V1.485A1.487,1.487,0,0,1,1.485,0H4.88A1.487,1.487,0,0,1,6.365,1.485V4.88A1.487,1.487,0,0,1,4.88,6.365ZM1.485,1.273a.215.215,0,0,0-.212.212V4.88a.213.213,0,0,0,.212.212H4.88a.213.213,0,0,0,.212-.212V1.485a.213.213,0,0,0-.212-.212Z" transform="translate(4.242 11.03)"/>
  <path id="Fill_149" data-name="Fill 149" class="cls-2" d="M4.243,5.091H.848A.849.849,0,0,1,0,4.242V.848A.849.849,0,0,1,.848,0H4.243a.849.849,0,0,1,.848.848V4.242a.848.848,0,0,1-.848.848" transform="translate(4.879 21.85)"/>
  <path id="Fill_150" data-name="Fill 150" class="cls-3" d="M4.88,6.364H1.485A1.487,1.487,0,0,1,0,4.879V1.485A1.487,1.487,0,0,1,1.485,0H4.88A1.487,1.487,0,0,1,6.365,1.485V4.879A1.487,1.487,0,0,1,4.88,6.364ZM1.485,1.273a.213.213,0,0,0-.212.212V4.879a.213.213,0,0,0,.212.212H4.88a.213.213,0,0,0,.212-.212V1.485a.213.213,0,0,0-.212-.212Z" transform="translate(4.242 21.214)"/>
  <path id="Fill_151" data-name="Fill 151" class="cls-2" d="M4.243,5.092H.848A.849.849,0,0,1,0,4.243V.848A.849.849,0,0,1,.848,0H4.243a.849.849,0,0,1,.848.848V4.243a.849.849,0,0,1-.848.848" transform="translate(4.879 32.033)"/>
  <path id="Fill_152" data-name="Fill 152" class="cls-3" d="M4.88,6.365H1.485A1.487,1.487,0,0,1,0,4.88V1.485A1.487,1.487,0,0,1,1.485,0H4.88A1.487,1.487,0,0,1,6.365,1.485V4.88A1.487,1.487,0,0,1,4.88,6.365ZM1.485,1.273a.213.213,0,0,0-.212.212V4.88a.213.213,0,0,0,.212.212H4.88a.213.213,0,0,0,.212-.212V1.485a.213.213,0,0,0-.212-.212Z" transform="translate(4.242 31.396)"/>
  <path id="Fill_153" data-name="Fill 153" class="cls-2" d="M4.243,5.092H.848A.849.849,0,0,1,0,4.243V.848A.849.849,0,0,1,.848,0H4.243a.849.849,0,0,1,.848.848V4.243a.849.849,0,0,1-.848.848" transform="translate(4.879 42.216)"/>
  <path id="Fill_154" data-name="Fill 154" class="cls-3" d="M4.88,6.365H1.485A1.487,1.487,0,0,1,0,4.88V1.485A1.487,1.487,0,0,1,1.485,0H4.88A1.487,1.487,0,0,1,6.365,1.485V4.88A1.487,1.487,0,0,1,4.88,6.365ZM1.485,1.273a.215.215,0,0,0-.212.212V4.88a.213.213,0,0,0,.212.212H4.88a.213.213,0,0,0,.212-.212V1.485a.213.213,0,0,0-.212-.212Z" transform="translate(4.242 41.579)"/>
  <path id="Fill_155" data-name="Fill 155" class="cls-3" d="M7.766,1.273H.636A.636.636,0,1,1,.636,0h7.13a.636.636,0,1,1,0,1.273" transform="translate(21.719 11.668)"/>
  <path id="Fill_156" data-name="Fill 156" class="cls-3" d="M6.233,1.273H.636A.636.636,0,1,1,.636,0h5.6a.636.636,0,0,1,0,1.273" transform="translate(12.728 11.668)"/>
  <path id="Fill_157" data-name="Fill 157" class="cls-3" d="M12.514,1.273H.636A.636.636,0,1,1,.636,0H12.514a.636.636,0,0,1,0,1.273" transform="translate(12.728 15.486)"/>
  <path id="Fill_158" data-name="Fill 158" class="cls-3" d="M8.272,1.273H.636A.636.636,0,1,1,.636,0H8.272a.636.636,0,0,1,0,1.273" transform="translate(12.728 21.85)"/>
  <path id="Fill_159" data-name="Fill 159" class="cls-3" d="M4.878,1.273H.636A.636.636,0,1,1,.636,0H4.878a.636.636,0,1,1,0,1.273" transform="translate(12.728 25.668)"/>
  <path id="Fill_160" data-name="Fill 160" class="cls-3" d="M7.423,1.273H.636A.636.636,0,1,1,.636,0H7.423a.636.636,0,0,1,0,1.273" transform="translate(12.728 32.033)"/>
  <path id="Fill_161" data-name="Fill 161" class="cls-3" d="M8.272,1.273H.636A.636.636,0,1,1,.636,0H8.272a.636.636,0,0,1,0,1.273" transform="translate(12.728 35.851)"/>
  <path id="Fill_162" data-name="Fill 162" class="cls-3" d="M5.727,1.273H.636A.636.636,0,1,1,.636,0H5.727a.636.636,0,1,1,0,1.273" transform="translate(19.515 42.216)"/>
  <path id="Fill_163" data-name="Fill 163" class="cls-3" d="M4.029,1.273H.636A.636.636,0,1,1,.636,0H4.029a.636.636,0,0,1,0,1.273" transform="translate(12.728 42.216)"/>
  <path id="Fill_164" data-name="Fill 164" class="cls-3" d="M6.576,1.273H.636A.636.636,0,1,1,.636,0H6.576a.636.636,0,0,1,0,1.273" transform="translate(22.909 46.034)"/>
  <path id="Fill_165" data-name="Fill 165" class="cls-3" d="M7.423,1.273H.636A.636.636,0,1,1,.636,0H7.423a.636.636,0,0,1,0,1.273" transform="translate(12.728 46.034)"/>
  <path id="Fill_166" data-name="Fill 166" class="cls-2" d="M0,16.121A16.121,16.121,0,1,1,16.121,32.242,16.121,16.121,0,0,1,0,16.121" transform="translate(22.697 13.364)"/>
  <path id="Fill_167" data-name="Fill 167" class="cls-1" d="M28.042,24.877A16.1,16.1,0,0,1,8.232,0a16.112,16.112,0,1,0,19.81,24.877" transform="translate(22.697 15.434)"/>
  <path id="Fill_168" data-name="Fill 168" class="cls-3" d="M16.758,33.515A16.758,16.758,0,1,1,33.515,16.758,16.777,16.777,0,0,1,16.758,33.515Zm0-32.243A15.485,15.485,0,1,0,32.243,16.758,15.5,15.5,0,0,0,16.758,1.273Z" transform="translate(22.061 12.727)"/>
  <path id="Fill_169" data-name="Fill 169" class="cls-2" d="M20.532,4.125,16.408,0l-7.9,7.872L4.124,3.491,0,7.615l8.505,8.506,12.027-12" transform="translate(28.984 23.548)"/>
  <path id="Fill_170" data-name="Fill 170" class="cls-1" d="M6.8,8.481,1.811,3.492,0,5.3,8.505,13.81l12.027-12L18.718,0l-8.5,8.483a2.417,2.417,0,0,1-3.415,0" transform="translate(28.984 25.859)"/>
  <path id="Fill_171" data-name="Fill 171" class="cls-3" d="M9.142,17.393a.632.632,0,0,1-.45-.185L.186,8.7a.637.637,0,0,1,0-.9L4.312,3.677a.636.636,0,0,1,.9,0L9.143,7.609,16.6.185a.637.637,0,0,1,.9,0l4.124,4.125a.633.633,0,0,1,0,.9l-12.026,12A.629.629,0,0,1,9.142,17.393ZM4.762,5.027h0L1.536,8.251l7.607,7.607,11.125-11.1L17.044,1.535,9.591,8.959a.636.636,0,0,1-.9,0L4.762,5.027Z" transform="translate(28.347 22.912)"/>
</svg>
